HIERARCHY
ROOT Hips
{
	OFFSET 0.000000 0.000000 0.000000
	CHANNELS 6 Xposition Yposition Zposition Zrotation Yrotation Xrotation 
	JOINT LeftUpLeg_virtual
	{
		OFFSET 0.000000 0.000000 0.000000
		CHANNELS 3 Zrotation Yrotation Xrotation
		JOINT LeftUpLeg
		{
			OFFSET 8.479694 -4.795517 -0.379053
			CHANNELS 3 Zrotation Yrotation Xrotation
			JOINT LeftLeg
			{
				OFFSET 0.485052 -32.551468 0.112863
				CHANNELS 3 Zrotation Yrotation Xrotation
				JOINT LeftFoot
				{
					OFFSET 0.438033 -32.635670 -3.012641
					CHANNELS 3 Zrotation Yrotation Xrotation
					JOINT LeftToeBase
					{
						OFFSET 0.970169 -13.225353 11.864223
						CHANNELS 3 Zrotation Yrotation Xrotation
						End Site
						{
							OFFSET 0.000000 0.000000 0.000000
						}
					}
				}
			}
		}
	}
	JOINT RightUpLeg_virtual
	{
		OFFSET 0.000000 0.000000 0.000000
		CHANNELS 3 Zrotation Yrotation Xrotation
		JOINT RightUpLeg
		{
			OFFSET -8.479694 -4.795517 -0.379053
			CHANNELS 3 Zrotation Yrotation Xrotation
			JOINT RightLeg
			{
				OFFSET -0.484100 -32.551483 0.112903
				CHANNELS 3 Zrotation Yrotation Xrotation
				JOINT RightFoot
				{
					OFFSET -0.438985 -32.635651 -3.012681
					CHANNELS 3 Zrotation Yrotation Xrotation
					JOINT RightToeBase
					{
						OFFSET -0.970169 -13.225354 11.864223
						CHANNELS 3 Zrotation Yrotation Xrotation
						End Site
						{
							OFFSET 0.000000 0.000000 0.000000
						}
					}
				}
			}
		}
	}
	JOINT Spine_virtual
	{
		OFFSET 0.000000 0.000000 0.000000
		CHANNELS 3 Zrotation Yrotation Xrotation
		JOINT Spine
		{
			OFFSET 0.000000 7.722015 1.166203
			CHANNELS 3 Zrotation Yrotation Xrotation
			JOINT Spine1
			{
				OFFSET 0.000000 12.024086 0.248766
				CHANNELS 3 Zrotation Yrotation Xrotation
				JOINT Spine2
				{
					OFFSET -0.000000 11.503036 -0.491240
					CHANNELS 3 Zrotation Yrotation Xrotation
					JOINT Neck_virtual
					{
						OFFSET 0.000000 0.000000 0.000000
						CHANNELS 3 Zrotation Yrotation Xrotation
						JOINT Neck
						{
							OFFSET 0.000000 18.430687 -3.123054
							CHANNELS 3 Zrotation Yrotation Xrotation
							JOINT Head
							{
								OFFSET -0.000000 9.051071 1.034021
								CHANNELS 3 Zrotation Yrotation Xrotation
								End Site
								{
									OFFSET 0.000000 0.000000 0.000000
								}
							}
						}
					}
					JOINT LeftShoulder_virtual
					{
						OFFSET 0.000000 0.000000 0.000000
						CHANNELS 3 Zrotation Yrotation Xrotation
						JOINT LeftShoulder
						{
							OFFSET 6.197824 13.665230 -4.064723
							CHANNELS 3 Zrotation Yrotation Xrotation
							JOINT LeftArm
							{
								OFFSET 7.778132 -0.187073 -1.709282
								CHANNELS 3 Zrotation Yrotation Xrotation
								JOINT LeftForeArm
								{
									OFFSET 21.954697 0.000000 -2.041093
									CHANNELS 3 Zrotation Yrotation Xrotation
									JOINT LeftHand
									{
										OFFSET 22.992908 0.000000 -0.870901
										CHANNELS 3 Zrotation Yrotation Xrotation
										End Site
										{
											OFFSET 0.000000 0.000000 0.000000
										}
									}
								}
							}
						}
					}
					JOINT RightShoulder_virtual
					{
						OFFSET 0.000000 0.000000 0.000000
						CHANNELS 3 Zrotation Yrotation Xrotation
						JOINT RightShoulder
						{
							OFFSET -6.197824 13.665230 -4.064723
							CHANNELS 3 Zrotation Yrotation Xrotation
							JOINT RightArm
							{
								OFFSET -7.778132 -0.187073 -1.709282
								CHANNELS 3 Zrotation Yrotation Xrotation
								JOINT RightForeArm
								{
									OFFSET -21.954697 0.000000 -2.041093
									CHANNELS 3 Zrotation Yrotation Xrotation
									JOINT RightHand
									{
										OFFSET -22.992908 0.000000 -0.870901
										CHANNELS 3 Zrotation Yrotation Xrotation
										End Site
										{
											OFFSET 0.000000 0.000000 0.000000
										}
									}
								}
							}
						}
					}
				}
			}
		}
	}
}
MOTION
Frames: 7
Frame Time: 0.033333
-4.124118 79.615707 98.691299 179.953505 1.228461 -179.993025 -2.794448 -0.492976 11.074585 -2.640345 -6.914523 -28.240604 9.945807 4.476773 36.320275 -8.583050 -8.084968 -11.727306 0.000000 0.000000 0.000000 -0.514601 0.163608 9.334577 -2.642422 -12.151389 -25.527622 -2.494691 0.357105 54.546888 5.534662 15.112511 -6.721129 0.000000 0.000000 0.000000 6.031327 1.220282 0.790706 -0.757148 1.207930 -2.520955 -0.625825 -2.629171 9.895843 0.031709 0.023342 -0.041482 -0.859521 -1.897473 11.185388 1.706976 -1.045156 -10.575591 0.000000 0.000000 0.000000 0.320669 -0.980669 8.328583 -2.743949 -0.940950 -2.966310 -62.741585 -1.837491 -20.608469 6.274161 -9.539770 11.494136 0.000000 0.000000 0.000000 -2.970116 0.352601 7.570845 24.999804 7.747452 3.401356 39.296220 49.948060 -1.935195 -3.610920 11.016699 -1.044149 0.000000 0.000000 0.000000 
-2.513361 80.346123 96.171303 -179.989760 1.253270 179.960404 -3.504636 0.077491 11.175344 -1.552534 -6.629909 -25.055934 10.731432 4.268539 34.342888 -8.231663 -7.873827 -12.148737 0.000000 0.000000 0.000000 -0.470499 0.914856 9.419633 -3.224430 -10.207813 -28.593023 -2.432537 0.555333 49.132016 5.992090 15.356347 -5.879307 0.000000 0.000000 0.000000 5.625187 1.958222 1.105923 -0.807104 0.822413 -2.299216 -0.637794 -2.575249 9.748408 0.023481 0.039842 -0.016851 -0.820300 -1.836177 10.990323 1.623970 -1.276635 -10.151288 0.000000 0.000000 0.000000 0.404924 -0.991702 8.115477 -3.151001 -2.420755 -2.746190 -61.758871 -7.994173 -15.634556 5.285659 -13.511385 10.341603 0.000000 0.000000 0.000000 -2.973567 0.318872 7.354136 24.908909 7.326209 3.095926 40.865650 49.554365 -0.400559 -3.392484 12.263600 -1.271347 0.000000 0.000000 0.000000 
-0.838812 80.812004 93.644295 -179.990989 0.563149 -179.902647 -4.019552 0.731177 11.097205 -0.778025 -6.164259 -22.529119 11.554995 4.284830 33.572531 -7.234497 -7.355634 -12.854563 0.000000 0.000000 0.000000 -0.298048 1.373137 9.260969 -3.712824 -8.252126 -31.125476 -2.376088 0.954722 41.626656 6.548001 15.424859 -4.499035 0.000000 0.000000 0.000000 5.176617 2.478952 1.278310 -0.796469 0.429931 -2.181622 -0.613120 -2.575614 9.585519 -0.010731 -0.000807 -0.006644 -0.697432 -1.688624 10.862621 1.490311 -1.517731 -9.727921 0.000000 0.000000 0.000000 0.574171 -0.960968 7.897019 -3.377052 -4.004085 -2.575101 -60.642162 -14.989062 -10.786276 4.380903 -17.112062 9.030540 0.000000 0.000000 0.000000 -2.855941 0.377925 7.319044 24.604606 7.062082 2.589687 42.015827 49.307593 0.724473 -3.054979 13.067397 -1.498992 0.000000 0.000000 0.000000 
0.898693 80.908234 91.009262 -179.933698 -0.538554 -179.906841 -4.013557 1.011137 10.927183 -0.238541 -5.578774 -20.566198 11.878118 4.475891 34.136186 -5.467224 -6.274483 -13.928870 0.000000 0.000000 0.000000 0.074478 1.518491 8.948355 -4.079580 -6.076737 -32.545015 -2.387157 1.130088 34.021603 6.999630 15.318470 -3.022667 0.000000 0.000000 0.000000 4.860981 2.767435 1.308872 -0.687459 0.112300 -2.008239 -0.522298 -2.537116 9.541677 -0.037798 0.001471 -0.008930 -0.589238 -1.626066 10.750060 1.408557 -2.131912 -9.265589 0.000000 0.000000 0.000000 0.648888 -0.939122 7.696494 -3.565511 -5.450665 -2.396904 -59.431272 -22.211551 -6.842469 3.495045 -20.262175 7.745266 0.000000 0.000000 0.000000 -2.808989 0.514650 7.170093 24.253681 6.913738 2.420523 42.461654 49.231785 1.560257 -2.985699 13.753218 -1.813614 0.000000 0.000000 0.000000 
2.739782 80.704308 88.193863 179.990579 -1.714818 -179.938574 -3.997769 1.019195 10.690650 0.474862 -4.748985 -19.006538 12.314075 4.978538 35.676288 -3.919128 -5.629880 -14.850918 0.000000 0.000000 0.000000 0.307581 1.257800 8.481486 -4.422925 -3.412038 -32.958217 -2.288519 2.241583 27.329844 7.328908 15.168803 -1.068876 0.000000 0.000000 0.000000 4.504508 2.814669 0.961012 -0.673714 -0.022019 -1.904189 -0.508886 -2.449667 9.535787 -0.011318 0.021152 -0.016194 -0.547653 -1.557690 10.691116 1.322875 -2.281658 -8.758334 0.000000 0.000000 0.000000 0.693761 -0.865893 7.566846 -3.509951 -6.609883 -2.445518 -57.958048 -28.773927 -4.687426 2.670873 -23.309170 6.290897 0.000000 0.000000 0.000000 -2.787346 0.554467 7.117579 24.004591 6.767334 2.344434 42.812531 49.122782 2.167425 -2.879533 14.487133 -2.112582 0.000000 0.000000 0.000000 
4.716213 80.366051 85.202271 -179.804334 -3.543413 -179.926676 -3.716549 0.757714 10.406664 1.697922 -3.962203 -17.818983 12.703842 4.967878 37.658975 -2.899344 -5.433052 -14.868306 0.000000 0.000000 0.000000 0.376521 0.933706 8.092710 -4.282635 -0.801130 -32.312676 -2.666808 3.931349 24.198102 7.348024 15.030221 -0.570358 0.000000 0.000000 0.000000 4.307306 2.476125 0.183441 -0.616041 -0.111057 -1.919380 -0.491387 -2.420456 9.582044 -0.038171 -0.015707 -0.019656 -0.592763 -1.501150 10.704558 1.346124 -2.843266 -8.194788 0.000000 0.000000 0.000000 0.591400 -0.910899 7.512690 -3.303567 -7.436570 -2.399258 -56.213150 -33.907593 -3.836967 2.058766 -26.840415 4.817935 0.000000 0.000000 0.000000 -2.845304 0.509894 7.114525 24.078381 6.599577 2.370288 43.278777 48.960685 2.869397 -2.861668 15.280318 -2.486574 0.000000 0.000000 0.000000 
6.748521 80.084236 82.157112 -179.492085 -5.538174 -179.941429 -3.445586 0.399432 10.110502 3.380228 -3.149784 -16.973952 12.827672 4.667462 39.502256 -2.232732 -5.303643 -13.636285 0.000000 0.000000 0.000000 0.133981 0.531590 7.693877 -3.670221 1.353386 -31.147650 -2.641749 5.086616 25.859776 6.773125 14.876565 -2.795801 0.000000 0.000000 0.000000 4.134330 1.894229 -0.688814 -0.621397 -0.164875 -1.965002 -0.547449 -2.427634 9.703087 -0.069236 -0.096842 -0.021968 -0.712618 -1.375019 10.729161 1.444962 -3.241856 -7.562884 0.000000 0.000000 0.000000 0.460295 -0.823020 7.405351 -3.044833 -7.679628 -2.309163 -54.369976 -36.971329 -3.967990 1.647971 -30.914092 3.583926 0.000000 0.000000 0.000000 -2.988169 0.719277 7.089966 24.499132 6.441336 2.425084 43.697109 48.660877 3.033295 -2.771256 16.072644 -2.542260 0.000000 0.000000 0.000000 
